<?xml version="1.0" encoding="UTF-8"?><!DOCTYPE svg PUBLIC "-//W3C//DTD SVG 1.1//EN" "http://www.w3.org/Graphics/SVG/1.1/DTD/svg11.dtd"><svg xmlns="http://www.w3.org/2000/svg" xmlns:xlink="http://www.w3.org/1999/xlink" xml:space="preserve" width="43.3492mm" height="43.3492mm" version="1.1" viewBox="0 0 4335 4335" shape-rendering="geometricPrecision" text-rendering="geometricPrecision" image-rendering="optimizeQuality" fill-rule="evenodd" clip-rule="evenodd"><defs><style type="text/css"><![CDATA[
    .fil0 {fill:#211D21}
   ]]></style></defs><g id="Layer_x0020_1"><g id="_511371400"><path class="fil0" d="M3343 1484c223-92 442-252 532-455-75-67-462-168-591-202-214-55-452-97-683-117-42 37-80 92-117 133-41 46-76 85-114 133-37 46-77 95-113 134-45 50-55 77-111 121l-432-523c-235 19-470 63-690 116l-597 204c74 198 393 423 539 452 34-74 19-87 74-144 104-106 381-114 526-110l582 2835c34-64 164-763 189-893l385-1895c16-57 21-49 82-48 134 1 332 20 439 93 77 53 57 108 98 164z" fill="#211D21"/><path class="fil0" d="M236 585l139 308c175-34 430-148 812-220 618-117 1292-121 1912-3 402 77 638 186 821 223l153-306c-134-30-290-92-433-129-956-249-2013-257-2970-2-147 39-298 98-433 129z" fill="#211D21"/></g></g><metadata><rdf:RDF xmlns:rdf="http://www.w3.org/1999/02/22-rdf-syntax-ns#" xmlns:rdfs="http://www.w3.org/2000/01/rdf-schema#" xmlns:dc="http://purl.org/dc/elements/1.1/"><rdf:Description about="https://iconscout.com/legal#licenses" dc:title="tesla,logo" dc:description="tesla,logo" dc:publisher="Iconscout" dc:date="2018-05-10" dc:format="image/svg+xml" dc:language="en"><dc:creator><rdf:Bag><rdf:li>Egor Polyakov</rdf:li></rdf:Bag></dc:creator></rdf:Description></rdf:RDF></metadata></svg>